# xmcd
#
# Track frame offsets: 
#        150
#        6982
#        23797
#        33877
#        46920
#        58060
#        67310
#        81100
#        88885
#        100027
#        106690
#        121375
#        133122
#        140552
#        154095
#        164942
#        180187
#        192810
#        213867
#        227830
#        240645
#
# Disc length: 3389 seconds
#
# Revision: 0
# Processed by: cddbd v1.5.2PL0 Copyright (c) Steve Scherf et al.
# Submitted via: ExactAudioCopy v0.99pb4
#
DISCID=1e0d3b15
DTITLE=Roger Wagner Chorale - Roger Wagner Chorale American and Japanese
DTITLE=Songs
DYEAR=1900
DGENRE=Chorus
TTITLE0=Joshua fit the Battle of Jericho
TTITLE1=Were you There?
TTITLE2=Elijah Rock
TTITLE3=Sometimes I feel like a Motherless Child
TTITLE4=Swing Low, Sweet Chariot
TTITLE5=De Camptown Races
TTITLE6=I Dream of Jeannie with the Light Brown Hair
TTITLE7=Oh! Lemuel
TTITLE8=Glendy Burk
TTITLE9=Nelly Bly
TTITLE10=Shenandoah
TTITLE11=Do Re Mi
TTITLE12=Oklahoma
TTITLE13=Vocalise
TTITLE14=kanatachi_no_hana
TTITLE15=yashinomi
TTITLE16=natsu no omoide
TTITLE17=koujou no gatsu
TTITLE18=yuki nogurumachiwo
TTITLE19=chiisai aki mitsuketa
TTITLE20=haruka na tomo ta
EXTD=
EXTT0=
EXTT1=
EXTT2=
EXTT3=
EXTT4=
EXTT5=
EXTT6=
EXTT7=
EXTT8=
EXTT9=
EXTT10=
EXTT11=
EXTT12=
EXTT13=
EXTT14=
EXTT15=
EXTT16=
EXTT17=
EXTT18=
EXTT19=
EXTT20=
PLAYORDER=
